<svg id="Layer_1" data-name="Layer 1" xmlns="http://www.w3.org/2000/svg" viewBox="0 0 18 22"><defs><style>.cls-1{fill:#ff415c;fill-rule:evenodd;}</style></defs><title>FootsiteTrashButton</title><path class="cls-1" d="M359.43,370a4,4,0,0,0-3.87,3h-4.13a1,1,0,0,0,0,2h16a1,1,0,1,0,0-2h-4.12A4,4,0,0,0,359.43,370Zm0,2a2,2,0,0,1,1.73,1H357.7A2,2,0,0,1,359.43,372Zm7,4a1,1,0,0,1,.73.32,1,1,0,0,1,.27.75l-.87,12.14a3,3,0,0,1-3,2.79h-8.28a3,3,0,0,1-3-2.79l-.87-12.14a1,1,0,0,1,.27-.75,1,1,0,0,1,.73-.32Zm-2.86,14a1,1,0,0,0,1-.93l.78-11.07H353.5l.79,11.07a1,1,0,0,0,1,.93Z" transform="translate(-350.43 -370)"/></svg>