<svg id="Layer_1" data-name="Layer 1" xmlns="http://www.w3.org/2000/svg" viewBox="0 0 28.67 33.82"><defs><style>.cls-1,.cls-2,.cls-3{fill:#fff;}.cls-1{opacity:0.5;}.cls-3{opacity:0.75;}</style></defs><title>FootsitePaypalButton</title><path class="cls-1" d="M382.29,324.77c0,.2-.07.41-.11.62-1.39,7.12-6.13,9.57-12.19,9.57h-3.08a1.5,1.5,0,0,0-1.48,1.27l-1.58,10-.45,2.84a.79.79,0,0,0,.66.9h5.59a1.31,1.31,0,0,0,1.3-1.11l.05-.28,1-6.53.07-.36a1.31,1.31,0,0,1,1.3-1.11h.82c5.3,0,9.45-2.16,10.66-8.38.51-2.61.25-4.78-1.09-6.31A5.41,5.41,0,0,0,382.29,324.77Z" transform="translate(-356.45 -316.18)"/><path class="cls-2" d="M380.84,324.19a10.89,10.89,0,0,0-1.35-.3,17.69,17.69,0,0,0-2.72-.2h-8.24a1.32,1.32,0,0,0-1.3,1.12l-1.75,11.1-.05.32a1.5,1.5,0,0,1,1.48-1.27H370c6.06,0,10.8-2.46,12.19-9.57,0-.21.08-.42.11-.62a8.1,8.1,0,0,0-1.14-.48Z" transform="translate(-356.45 -316.18)"/><path class="cls-3" d="M367.23,324.81a1.3,1.3,0,0,1,1.3-1.11h8.24a17.68,17.68,0,0,1,2.72.19,10.56,10.56,0,0,1,1.66.4,8.49,8.49,0,0,1,1.14.48c.41-2.63,0-4.42-1.43-6-1.56-1.79-4.4-2.55-8-2.55H362.33a1.49,1.49,0,0,0-1.48,1.27l-4.38,27.75a.9.9,0,0,0,.75,1h6.63l1.63-10.34Z" transform="translate(-356.45 -316.18)"/></svg>