<svg id="Layer_1" data-name="Layer 1" xmlns="http://www.w3.org/2000/svg" viewBox="0 0 19.48 19.48"><defs><style>.cls-1{fill:#fbb03b;fill-rule:evenodd;}</style></defs><title>FootsiteStopButton</title><path class="cls-1" d="M281.83,372.26H270.7a4.19,4.19,0,0,0-4.18,4.17v11.14a4.19,4.19,0,0,0,4.18,4.17h11.13a4.19,4.19,0,0,0,4.17-4.17V376.43A4.19,4.19,0,0,0,281.83,372.26Zm1.39,15.31a1.4,1.4,0,0,1-1.39,1.39H270.7a1.4,1.4,0,0,1-1.4-1.39V376.43a1.4,1.4,0,0,1,1.4-1.39h11.13a1.4,1.4,0,0,1,1.39,1.39Z" transform="translate(-266.52 -372.26)"/></svg>