<svg id="Layer_1" data-name="Layer 1" xmlns="http://www.w3.org/2000/svg" viewBox="0 0 28 28"><defs><style>.cls-1{fill:#fff;fill-rule:evenodd;}</style></defs><title>FootsiteImportButton</title><path class="cls-1" d="M382,336a1.4,1.4,0,0,0-1.4,1.4v14.82L376,347.6a1.4,1.4,0,0,0-2,2l6.86,6.86a1.4,1.4,0,0,0,1.79.39,1.28,1.28,0,0,0,.32-.24l7-7a1.4,1.4,0,0,0-2-2l-4.62,4.62V337.4A1.4,1.4,0,0,0,382,336Zm11.2,15.4a1.4,1.4,0,0,1,2.8,0v7a5.6,5.6,0,0,1-5.6,5.6H373.6a5.6,5.6,0,0,1-5.6-5.6v-7a1.4,1.4,0,0,1,2.8,0v7a2.81,2.81,0,0,0,2.8,2.8h16.8a2.81,2.81,0,0,0,2.8-2.8Z" transform="translate(-368 -336)"/></svg>