<svg id="Layer_1" data-name="Layer 1" xmlns="http://www.w3.org/2000/svg" viewBox="0 0 20.68 20.67"><defs><style>.cls-1{fill:#fff;fill-rule:evenodd;}</style></defs><title>FootsiteEditButton</title><path class="cls-1" d="M327.92,375.08l-2.83-2.83a2,2,0,0,0-2.83,0L309.55,385a.87.87,0,0,0-.17.22.79.79,0,0,0-.1.27l-1.42,5.63a1,1,0,0,0,.26,1,1,1,0,0,0,.71.29l.24,0,5.66-1.41a1,1,0,0,0,.47-.26l12.72-12.72A2,2,0,0,0,327.92,375.08ZM314,389l-3.77.94.95-3.77,9-9L323,380Zm10.41-10.41-2.83-2.83,2.13-2.12,2.83,2.83Z" transform="translate(-307.83 -371.67)"/></svg>