<svg id="Layer_1" data-name="Layer 1" xmlns="http://www.w3.org/2000/svg" viewBox="0 0 20.4 24"><defs><style>.cls-1{fill:#00ff5f;fill-rule:evenodd;}</style></defs><title>FootsiteSpeedButton</title><path class="cls-1" d="M494.8,329.79v1.37a10.2,10.2,0,1,1-3.6,0v-1.37h-.9a1.2,1.2,0,1,1,0-2.4h5.4a1.2,1.2,0,1,1,0,2.4Zm-9.6,11.4a7.8,7.8,0,1,0,7.8-7.8A7.82,7.82,0,0,0,485.2,341.19Zm8.7-1.55v-3.85a.9.9,0,0,0-1.8,0v3.85a1.77,1.77,0,0,0-.9,1.55A1.8,1.8,0,0,0,493,343a1.77,1.77,0,0,0,1.55-.9,1.65,1.65,0,0,0,.25-.9,1.6,1.6,0,0,0-.25-.9A1.69,1.69,0,0,0,493.9,339.64Z" transform="translate(-482.8 -327.39)"/></svg>