<svg id="Layer_1" data-name="Layer 1" xmlns="http://www.w3.org/2000/svg" viewBox="0 0 52.11 52.11"><defs><style>.cls-1{fill:#fff;fill-rule:evenodd;}</style></defs><title>FootsiteSettingsButton</title><path class="cls-1" d="M369.83,341.79a2.14,2.14,0,0,0,1.3,1.23,7.42,7.42,0,0,1,0,14,2.15,2.15,0,0,0-1.3,1.22,2.22,2.22,0,0,0,.05,1.77,7.42,7.42,0,0,1-9.87,9.88,2.07,2.07,0,0,0-1.77-.05,2.14,2.14,0,0,0-1.23,1.3,7.42,7.42,0,0,1-14,0,2.15,2.15,0,0,0-1.22-1.3,2.22,2.22,0,0,0-1.77.05,7.42,7.42,0,0,1-9.88-9.87,2.07,2.07,0,0,0,.05-1.77,2.14,2.14,0,0,0-1.3-1.23,7.41,7.41,0,0,1,0-14,2.12,2.12,0,0,0,1.3-1.25,2.18,2.18,0,0,0-.05-1.77,7.42,7.42,0,0,1,9.88-9.88,2.11,2.11,0,0,0,1.79.05,2.14,2.14,0,0,0,1.23-1.3,7.42,7.42,0,0,1,14,0,2.15,2.15,0,0,0,1.22,1.3,2.22,2.22,0,0,0,1.77-.05,7.42,7.42,0,0,1,9.88,9.87A2.07,2.07,0,0,0,369.83,341.79ZM365,356.23a7.45,7.45,0,0,1,4.37-4.15,2.15,2.15,0,0,0,1.46-2.08,2.12,2.12,0,0,0-1.43-2.06,7.39,7.39,0,0,1-4.22-10.16,2.17,2.17,0,0,0-.44-2.5,2.13,2.13,0,0,0-2.51-.44,7.41,7.41,0,0,1-10.16-4.22,2.21,2.21,0,0,0-4.16,0,7.41,7.41,0,0,1-10.16,4.19,2.2,2.2,0,0,0-2.92,2.95,7.53,7.53,0,0,1,.15,6,7.45,7.45,0,0,1-4.37,4.15,2.15,2.15,0,0,0-1.46,2.08,2.12,2.12,0,0,0,1.43,2.06,7.39,7.39,0,0,1,4.22,10.16,2.17,2.17,0,0,0,.44,2.5,2.13,2.13,0,0,0,2.51.44,7.15,7.15,0,0,1,3.17-.73,7.55,7.55,0,0,1,2.84.58,7.45,7.45,0,0,1,4.15,4.37,2.15,2.15,0,0,0,2.08,1.46,2.12,2.12,0,0,0,2.06-1.43,7.39,7.39,0,0,1,10.16-4.22,2.22,2.22,0,0,0,2.94-2.95A7.33,7.33,0,0,1,365,356.23ZM339.58,350A10.42,10.42,0,1,1,350,360.42,10.41,10.41,0,0,1,339.58,350Zm5.21,0a5.21,5.21,0,1,0,5.21-5.21A5.22,5.22,0,0,0,344.79,350Z" transform="translate(-323.95 -323.95)"/></svg>