<svg id="Layer_1" data-name="Layer 1" xmlns="http://www.w3.org/2000/svg" viewBox="0 0 37.83 28.37"><defs><style>.cls-1{fill:#fff;fill-rule:evenodd;}</style></defs><title>FootsiteCardButton</title><path class="cls-1" d="M334.78,321.54H365a3.8,3.8,0,0,1,3.79,3.78v20.81a3.8,3.8,0,0,1-3.79,3.78H334.78a3.79,3.79,0,0,1-3.78-3.78V325.32A3.79,3.79,0,0,1,334.78,321.54ZM365,329.11v-3.79H334.78v3.79Zm-30.26,3.78v13.24H365V332.89Zm4.73,3.78H349a.93.93,0,0,1,.94.95v3.78a.93.93,0,0,1-.94,1h-9.46a1,1,0,0,1-.94-1v-3.78A.93.93,0,0,1,339.51,336.67Z" transform="translate(-331 -321.54)"/></svg>