<svg id="Layer_1" data-name="Layer 1" xmlns="http://www.w3.org/2000/svg" viewBox="0 0 49.14 49.14"><defs><style>.cls-1{fill:#fff;fill-rule:evenodd;}</style></defs><title>FootsiteProxyButton</title><path class="cls-1" d="M350,325.43A24.57,24.57,0,1,0,374.57,350,24.61,24.61,0,0,0,350,325.43Zm0,44.23c-1.55,0-4.2-3.86-5.45-11.06h10.88C354.2,365.8,351.55,369.66,350,369.66Zm-6-16c-.07-1.18-.12-2.39-.12-3.69s.05-2.51.12-3.69h12c.08,1.18.13,2.39.13,3.69s-.05,2.51-.13,3.69ZM330.34,350a18.93,18.93,0,0,1,.37-3.69h8.38q-.15,1.85-.15,3.69c0,1.23.05,2.46.13,3.69h-8.36A18.93,18.93,0,0,1,330.34,350ZM350,330.34c1.55,0,4.2,3.86,5.45,11.06h-10.9C345.8,334.2,348.45,330.34,350,330.34Zm10.93,16h8.38a20.6,20.6,0,0,1,.35,3.69,18.93,18.93,0,0,1-.37,3.69h-8.38c.07-1.23.12-2.46.12-3.69S361,347.54,360.93,346.31Zm6.71-4.91h-7.25a34.83,34.83,0,0,0-2.7-9.48A19.64,19.64,0,0,1,367.64,341.4Zm-25.35-9.48a35.57,35.57,0,0,0-2.68,9.48h-7.25A19.68,19.68,0,0,1,342.29,331.92Zm-9.93,26.68h7.25a34.83,34.83,0,0,0,2.7,9.48A19.64,19.64,0,0,1,332.36,358.6Zm25.35,9.48a35.55,35.55,0,0,0,2.71-9.48h7.25A19.86,19.86,0,0,1,357.71,368.08Z" transform="translate(-325.43 -325.43)"/></svg>