<svg id="Layer_1" data-name="Layer 1" xmlns="http://www.w3.org/2000/svg" viewBox="0 0 46.9 52.11"><defs><style>.cls-1{fill:#fff;fill-rule:evenodd;}</style></defs><title>FootsiteProfileButton</title><path class="cls-1" d="M363,337a13,13,0,1,1-13-13A13,13,0,0,1,363,337Zm-5.21,0a7.82,7.82,0,1,0-7.82,7.82A7.84,7.84,0,0,0,357.82,337Zm-31.27,31.27a15.64,15.64,0,0,1,15.63-15.63h15.64a15.64,15.64,0,0,1,15.63,15.63,7.84,7.84,0,0,1-7.82,7.81H334.37A7.84,7.84,0,0,1,326.55,368.24Zm5.21,0a2.62,2.62,0,0,0,2.61,2.6h31.26a2.62,2.62,0,0,0,2.61-2.6,10.42,10.42,0,0,0-10.42-10.42H342.18A10.42,10.42,0,0,0,331.76,368.24Z" transform="translate(-326.55 -323.95)"/></svg>