<svg id="Layer_1" data-name="Layer 1" xmlns="http://www.w3.org/2000/svg" xmlns:xlink="http://www.w3.org/1999/xlink" viewBox="0 0 422 267"><defs><style>.cls-1{fill:url(#linear-gradient);}.cls-2,.cls-3,.cls-4,.cls-5{fill:#fff;}.cls-2{opacity:0.1;}.cls-3{font-size:31.16px;font-family:OpenSans-Semibold, Open Sans;font-weight:600;}.cls-4{opacity:0.5;font-size:15.08px;}.cls-4,.cls-5{font-family:OpenSans-Bold, Open Sans;font-weight:700;}.cls-5{font-size:20.23px;}</style><linearGradient id="linear-gradient" x1="45.87" y1="298.63" x2="376.13" y2="-31.63" gradientUnits="userSpaceOnUse"><stop offset="0" stop-color="#ff415c"/><stop offset="1" stop-color="#ff93a2"/></linearGradient></defs><title>FootsiteCreditCard</title><rect class="cls-1" width="422" height="267" rx="24.24"/><path class="cls-2" d="M583,409.6v49.16A24.31,24.31,0,0,1,558.76,483H185.24A24.31,24.31,0,0,1,161,458.76V364.52a59.88,59.88,0,0,1,6.5-7.22c15-14.13,36.53-19,57.11-20.13a207.13,207.13,0,0,1,79.62,11.16c24.71,8.61,47.52,21.81,71.21,32.93,44.7,21,93.32,34.67,142.69,35.4A262.3,262.3,0,0,0,583,409.6Z" transform="translate(-161 -216)"/><text class="cls-3" transform="translate(44.31 124.21)"><tspan xml:space="preserve">4356  8365  2738  4285</tspan></text><text class="cls-4" transform="translate(343.45 198.2)">CVV</text><text class="cls-5" transform="translate(343.45 228.69)">235</text><text class="cls-4" transform="translate(218.45 198.2)">Expires</text><text class="cls-5" transform="translate(218.45 228.69)">08/22</text></svg>